<svg xmlns="http://www.w3.org/2000/svg" version="1.1" xmlns:xlink="http://www.w3.org/1999/xlink" xmlns:svgjs="http://svgjs.dev/svgjs" width="1000" height="1000" viewBox="0 0 1000 1000"><rect width="1000" height="1000" fill="#000000"></rect><g transform="matrix(0.7,0,0,0.7,150.07466666666664,352.2436777120254)"><svg viewBox="0 0 375 158" data-background-color="#ffffff" preserveAspectRatio="xMidYMid meet" height="421" width="1000" xmlns="http://www.w3.org/2000/svg" xmlns:xlink="http://www.w3.org/1999/xlink"><g id="tight-bounds" transform="matrix(1,0,0,1,-0.03976000000000113,0.21784499999998275)"><svg viewBox="0 0 375.07953 157.56431000000003" height="157.56431000000003" width="375.07953"><g><svg></svg></g><g><svg viewBox="0 0 375.07953 157.56431000000003" height="157.56431000000003" width="375.07953"><g transform="matrix(1,0,0,1,-10.22024,-45.62700000000001)"><path d="M10.22 201.573v-155.946h375.08v155.946l-29.14 0v-4.785h24.355v-146.376h-365.51v146.376h118.9v4.785z" fill="#ffffff" fill-rule="nonzero" stroke="none" stroke-width="1" stroke-linecap="butt" stroke-linejoin="miter" stroke-miterlimit="10" stroke-dasharray="" stroke-dashoffset="0" font-family="none" font-weight="none" font-size="none" text-anchor="none" style="mix-blend-mode: normal" data-fill-palette-color="tertiary"></path><g><path d="M153.33 203.191c-1.111 0-2.045-0.223-2.802-0.669-0.756-0.446-1.323-1.075-1.7-1.886-0.379-0.811-0.568-1.758-0.568-2.843v0c0-1.02 0.187-1.936 0.56-2.746 0.374-0.811 0.941-1.453 1.703-1.927 0.76-0.474 1.695-0.711 2.807-0.711v0c0.483 0 0.914 0.038 1.293 0.115 0.377 0.078 0.784 0.209 1.221 0.391v0 1.216c-0.774-0.374-1.603-0.56-2.487-0.56v0c-0.765 0-1.43 0.179-1.995 0.538-0.565 0.361-0.998 0.862-1.298 1.503-0.301 0.643-0.446 1.37-0.438 2.181v0c0 0.838 0.146 1.576 0.438 2.214 0.292 0.638 0.715 1.134 1.271 1.49 0.556 0.355 1.221 0.533 1.995 0.533v0c0.483 0 0.959-0.068 1.429-0.205 0.468-0.137 0.962-0.333 1.482-0.588v0l0.423 1.121c-0.528 0.273-1.084 0.481-1.667 0.623-0.583 0.14-1.139 0.21-1.667 0.21zM161.638 203.191c-0.802 0-1.482-0.175-2.041-0.524-0.561-0.352-0.983-0.831-1.266-1.438-0.282-0.605-0.424-1.285-0.423-2.042v0c0-0.756 0.141-1.438 0.423-2.044 0.282-0.605 0.704-1.083 1.266-1.435 0.559-0.35 1.24-0.525 2.041-0.525v0c0.802 0 1.483 0.175 2.045 0.525 0.559 0.352 0.978 0.83 1.257 1.435 0.277 0.607 0.415 1.288 0.416 2.044v0c0 0.756-0.138 1.437-0.416 2.042-0.279 0.607-0.698 1.086-1.257 1.438-0.561 0.35-1.243 0.525-2.045 0.524zM161.638 202.03c0.756 0 1.342-0.264 1.758-0.793 0.414-0.528 0.62-1.212 0.62-2.05v0c0-0.838-0.207-1.52-0.62-2.044-0.415-0.523-1.001-0.784-1.758-0.784v0c-0.756 0-1.344 0.261-1.762 0.784-0.419 0.525-0.629 1.206-0.629 2.044v0c0 0.838 0.21 1.521 0.629 2.05 0.419 0.528 1.007 0.793 1.762 0.793zM170.945 195.238c0.929 0 1.62 0.246 2.071 0.738 0.45 0.492 0.675 1.303 0.675 2.432v0 4.551h-1.284v-4.551c0-0.711-0.12-1.216-0.361-1.517-0.242-0.301-0.669-0.451-1.279-0.45v0c-0.711 0-1.421 0.31-2.132 0.929v0 5.589h-1.284v-7.557h1.284v0.806c0.747-0.647 1.517-0.97 2.31-0.97zM179.677 195.238c0.929 0 1.62 0.246 2.072 0.738 0.45 0.492 0.675 1.303 0.675 2.432v0 4.551h-1.285v-4.551c0-0.711-0.12-1.216-0.361-1.517-0.242-0.301-0.669-0.451-1.279-0.45v0c-0.711 0-1.421 0.31-2.131 0.929v0 5.589h-1.285v-7.557h1.285v0.806c0.747-0.647 1.517-0.97 2.309-0.97zM185.69 199.283c0.018 0.838 0.228 1.508 0.628 2.009 0.401 0.501 1.039 0.752 1.914 0.751v0c0.665 0 1.394-0.187 2.186-0.56v0l0.396 1.066c-0.829 0.428-1.726 0.642-2.692 0.642v0c-0.802 0-1.485-0.169-2.05-0.505-0.565-0.337-0.993-0.806-1.284-1.408-0.292-0.601-0.437-1.303-0.437-2.104v0c0-0.847 0.153-1.57 0.459-2.168 0.304-0.596 0.716-1.049 1.235-1.358 0.519-0.31 1.102-0.465 1.749-0.465v0c0.993 0 1.772 0.31 2.337 0.93 0.565 0.62 0.847 1.508 0.847 2.664v0 0.506zM187.794 196.331c-1.13 0-1.804 0.624-2.022 1.872v0h3.854c-0.046-0.638-0.219-1.11-0.52-1.415-0.301-0.304-0.738-0.456-1.312-0.457zM196.007 203.191c-1.175-0.009-2.079-0.374-2.711-1.093-0.634-0.72-0.951-1.695-0.951-2.924v0c0-1.23 0.317-2.2 0.951-2.911 0.632-0.711 1.536-1.07 2.711-1.08v0c0.41 0 0.763 0.029 1.061 0.088 0.295 0.06 0.611 0.159 0.948 0.295v0 1.243c-0.328-0.155-0.64-0.264-0.935-0.327-0.297-0.064-0.623-0.096-0.978-0.096v0c-0.847 0.009-1.462 0.261-1.845 0.757-0.383 0.497-0.574 1.17-0.574 2.017v0c0 0.865 0.191 1.553 0.574 2.063 0.383 0.51 0.988 0.77 1.818 0.779v0c0.647 0 1.353-0.196 2.118-0.587v0l0.41 1.12c-0.829 0.437-1.695 0.656-2.597 0.656zM203.564 196.686h-1.749v4.319c0 0.364 0.057 0.613 0.172 0.746 0.113 0.131 0.324 0.197 0.634 0.197v0c0.273 0 0.565-0.036 0.875-0.11v0 1.162c-0.41 0.091-0.774 0.137-1.093 0.137v0c-0.692 0-1.177-0.141-1.454-0.424-0.279-0.282-0.418-0.756-0.418-1.421v0-4.606h-0.984v-1.188h0.984v-2.597h1.284v2.597h1.749zM208.238 199.515v-1.202h4.018v1.202zM222.19 203.191c-1.111 0-2.045-0.223-2.801-0.669-0.756-0.446-1.323-1.075-1.7-1.886-0.379-0.811-0.568-1.758-0.568-2.843v0c0-1.02 0.187-1.936 0.56-2.746 0.374-0.811 0.941-1.453 1.703-1.927 0.76-0.474 1.695-0.711 2.806-0.711v0c0.483 0 0.914 0.038 1.293 0.115 0.377 0.078 0.784 0.209 1.222 0.391v0 1.216c-0.774-0.374-1.603-0.56-2.487-0.56v0c-0.765 0-1.43 0.179-1.995 0.538-0.565 0.361-0.998 0.862-1.299 1.503-0.301 0.643-0.446 1.37-0.437 2.181v0c0 0.838 0.146 1.576 0.437 2.214 0.292 0.638 0.715 1.134 1.271 1.49 0.556 0.355 1.221 0.533 1.995 0.533v0c0.483 0 0.959-0.068 1.43-0.205 0.468-0.137 0.962-0.333 1.481-0.588v0l0.424 1.121c-0.528 0.273-1.084 0.481-1.667 0.623-0.583 0.14-1.139 0.21-1.668 0.21zM230.499 203.191c-0.802 0-1.482-0.175-2.041-0.524-0.561-0.352-0.983-0.831-1.266-1.438-0.282-0.605-0.424-1.285-0.424-2.042v0c0-0.756 0.141-1.438 0.424-2.044 0.282-0.605 0.704-1.083 1.266-1.435 0.559-0.35 1.24-0.525 2.041-0.525v0c0.802 0 1.483 0.175 2.045 0.525 0.559 0.352 0.978 0.83 1.257 1.435 0.277 0.607 0.415 1.288 0.415 2.044v0c0 0.756-0.138 1.437-0.415 2.042-0.279 0.607-0.698 1.086-1.257 1.438-0.561 0.35-1.243 0.525-2.045 0.524zM230.499 202.03c0.756 0 1.342-0.264 1.758-0.793 0.414-0.528 0.62-1.212 0.62-2.05v0c0-0.838-0.207-1.52-0.62-2.044-0.415-0.523-1.001-0.784-1.758-0.784v0c-0.756 0-1.344 0.261-1.763 0.784-0.419 0.525-0.629 1.206-0.628 2.044v0c0 0.838 0.21 1.521 0.628 2.05 0.419 0.528 1.007 0.793 1.763 0.793zM238.138 203.137c-0.683 0-1.175-0.137-1.476-0.41-0.301-0.273-0.451-0.733-0.451-1.381v0-9.948h1.285v9.607c0 0.364 0.057 0.613 0.172 0.746 0.113 0.131 0.329 0.197 0.648 0.197v0c0.255 0 0.483-0.027 0.683-0.082v0 1.175c-0.364 0.064-0.651 0.096-0.861 0.096zM242.498 203.137c-0.683 0-1.175-0.137-1.476-0.41-0.301-0.273-0.451-0.733-0.451-1.381v0-9.948h1.284v9.607c0 0.364 0.057 0.613 0.172 0.746 0.113 0.131 0.329 0.197 0.648 0.197v0c0.255 0 0.483-0.027 0.683-0.082v0 1.175c-0.364 0.064-0.651 0.096-0.86 0.096zM247.253 195.402c0.802 0 1.412 0.134 1.831 0.402 0.419 0.27 0.697 0.63 0.834 1.079 0.137 0.452 0.205 1.019 0.205 1.703v0 4.373h-1.285v-0.752c-0.346 0.328-0.692 0.565-1.038 0.711-0.346 0.146-0.72 0.219-1.121 0.219v0c-0.474 0-0.902-0.103-1.284-0.309-0.383-0.204-0.685-0.5-0.908-0.888-0.224-0.386-0.336-0.844-0.336-1.372v0c0-0.82 0.255-1.456 0.765-1.908 0.51-0.45 1.198-0.675 2.064-0.675v0c0.683 0 1.298 0.15 1.845 0.451v0c-0.009-0.446-0.055-0.802-0.137-1.066-0.082-0.264-0.251-0.467-0.506-0.61-0.255-0.14-0.633-0.21-1.134-0.21v0h-1.011v-1.148zM246.857 202.03c0.31 0 0.636-0.073 0.978-0.219 0.341-0.146 0.675-0.364 1.003-0.656v0-1.722c-0.51-0.255-1.066-0.383-1.667-0.382v0c-0.483 0-0.888 0.116-1.216 0.347-0.328 0.233-0.492 0.623-0.492 1.169v0c0 0.51 0.139 0.882 0.418 1.116 0.277 0.231 0.602 0.347 0.976 0.347zM255.712 195.183c1.02 0 1.834 0.342 2.441 1.025 0.605 0.683 0.907 1.676 0.907 2.979v0c0 1.303-0.302 2.296-0.907 2.979-0.607 0.683-1.42 1.025-2.441 1.025v0c-0.738 0-1.467-0.305-2.186-0.915v0 0.683h-1.285v-11.561h1.285v4.715c0.729-0.62 1.458-0.929 2.186-0.93zM255.534 202.002c0.72 0 1.266-0.24 1.64-0.718 0.374-0.477 0.56-1.176 0.561-2.097v0c0-0.92-0.187-1.617-0.561-2.091-0.374-0.474-0.92-0.711-1.64-0.71v0c-0.683 0-1.353 0.282-2.008 0.847v0 3.922c0.674 0.565 1.344 0.847 2.008 0.847zM264.335 203.191c-0.802 0-1.482-0.175-2.042-0.524-0.561-0.352-0.983-0.831-1.265-1.438-0.282-0.605-0.424-1.285-0.424-2.042v0c0-0.756 0.141-1.438 0.424-2.044 0.282-0.605 0.704-1.083 1.265-1.435 0.559-0.35 1.24-0.525 2.042-0.525v0c0.802 0 1.483 0.175 2.044 0.525 0.559 0.352 0.978 0.83 1.258 1.435 0.277 0.607 0.415 1.288 0.415 2.044v0c0 0.756-0.138 1.437-0.415 2.042-0.279 0.607-0.698 1.086-1.258 1.438-0.561 0.35-1.243 0.525-2.044 0.524zM264.335 202.03c0.756 0 1.342-0.264 1.757-0.793 0.414-0.528 0.62-1.212 0.621-2.05v0c0-0.838-0.207-1.52-0.621-2.044-0.415-0.523-1.001-0.784-1.757-0.784v0c-0.756 0-1.344 0.261-1.763 0.784-0.419 0.525-0.629 1.206-0.628 2.044v0c0 0.838 0.21 1.521 0.628 2.05 0.419 0.528 1.007 0.793 1.763 0.793zM273.614 195.238h0.314v1.203h-0.314c-0.783 0-1.544 0.314-2.282 0.942v0 5.576h-1.285v-7.557h1.285v0.847c0.747-0.674 1.508-1.011 2.282-1.011zM277.891 195.402c0.802 0 1.412 0.134 1.831 0.402 0.419 0.27 0.697 0.63 0.834 1.079 0.137 0.452 0.205 1.019 0.205 1.703v0 4.373h-1.285v-0.752c-0.346 0.328-0.692 0.565-1.038 0.711-0.346 0.146-0.72 0.219-1.121 0.219v0c-0.474 0-0.902-0.103-1.284-0.309-0.383-0.204-0.685-0.5-0.908-0.888-0.224-0.386-0.336-0.844-0.336-1.372v0c0-0.82 0.255-1.456 0.765-1.908 0.51-0.45 1.198-0.675 2.064-0.675v0c0.683 0 1.298 0.15 1.845 0.451v0c-0.009-0.446-0.055-0.802-0.137-1.066-0.082-0.264-0.251-0.467-0.505-0.61-0.255-0.14-0.633-0.21-1.135-0.21v0h-1.011v-1.148zM277.495 202.03c0.31 0 0.636-0.073 0.978-0.219 0.341-0.146 0.675-0.364 1.003-0.656v0-1.722c-0.51-0.255-1.066-0.383-1.667-0.382v0c-0.483 0-0.888 0.116-1.216 0.347-0.328 0.233-0.492 0.623-0.492 1.169v0c0 0.51 0.139 0.882 0.418 1.116 0.277 0.231 0.602 0.347 0.976 0.347zM286.173 196.686h-1.75v4.319c0 0.364 0.057 0.613 0.173 0.746 0.113 0.131 0.324 0.197 0.634 0.197v0c0.273 0 0.565-0.036 0.874-0.11v0 1.162c-0.41 0.091-0.774 0.137-1.093 0.137v0c-0.692 0-1.177-0.141-1.454-0.424-0.279-0.282-0.418-0.756-0.418-1.421v0-4.606h-0.984v-1.188h0.984v-2.597h1.284v2.597h1.75zM288.851 199.283c0.018 0.838 0.228 1.508 0.629 2.009 0.401 0.501 1.039 0.752 1.913 0.751v0c0.665 0 1.394-0.187 2.186-0.56v0l0.397 1.066c-0.829 0.428-1.726 0.642-2.693 0.642v0c-0.802 0-1.485-0.169-2.049-0.505-0.565-0.337-0.993-0.806-1.285-1.408-0.292-0.601-0.437-1.303-0.437-2.104v0c0-0.847 0.153-1.57 0.459-2.168 0.304-0.596 0.716-1.049 1.235-1.358 0.519-0.31 1.102-0.465 1.75-0.465v0c0.993 0 1.772 0.31 2.336 0.93 0.565 0.62 0.847 1.508 0.848 2.664v0 0.506zM290.956 196.331c-1.13 0-1.804 0.624-2.023 1.872v0h3.854c-0.046-0.638-0.219-1.11-0.52-1.415-0.301-0.304-0.738-0.456-1.311-0.457zM298.841 199.515v-1.202h4.017v1.202zM312.793 203.191c-1.111 0-2.045-0.223-2.801-0.669-0.756-0.446-1.323-1.075-1.7-1.886-0.379-0.811-0.568-1.758-0.569-2.843v0c0-1.02 0.187-1.936 0.56-2.746 0.374-0.811 0.941-1.453 1.703-1.927 0.76-0.474 1.695-0.711 2.807-0.711v0c0.483 0 0.914 0.038 1.293 0.115 0.377 0.078 0.784 0.209 1.222 0.391v0 1.216c-0.774-0.374-1.603-0.56-2.488-0.56v0c-0.765 0-1.43 0.179-1.995 0.538-0.565 0.361-0.998 0.862-1.298 1.503-0.301 0.643-0.446 1.37-0.437 2.181v0c0 0.838 0.146 1.576 0.437 2.214 0.292 0.638 0.715 1.134 1.271 1.49 0.556 0.355 1.221 0.533 1.995 0.533v0c0.483 0 0.959-0.068 1.429-0.205 0.468-0.137 0.962-0.333 1.482-0.588v0l0.423 1.121c-0.528 0.273-1.084 0.481-1.667 0.623-0.583 0.14-1.139 0.21-1.667 0.21zM321.102 203.191c-0.802 0-1.482-0.175-2.042-0.524-0.561-0.352-0.983-0.831-1.265-1.438-0.282-0.605-0.424-1.285-0.424-2.042v0c0-0.756 0.141-1.438 0.424-2.044 0.282-0.605 0.704-1.083 1.265-1.435 0.559-0.35 1.24-0.525 2.042-0.525v0c0.802 0 1.482 0.175 2.041 0.525 0.561 0.352 0.98 0.83 1.258 1.435 0.279 0.607 0.418 1.288 0.418 2.044v0c0 0.756-0.139 1.437-0.418 2.042-0.277 0.607-0.696 1.086-1.258 1.438-0.559 0.35-1.24 0.525-2.041 0.524zM321.102 202.03c0.756 0 1.342-0.264 1.757-0.793 0.414-0.528 0.62-1.212 0.621-2.05v0c0-0.838-0.207-1.52-0.621-2.044-0.415-0.523-1.001-0.784-1.757-0.784v0c-0.756 0-1.344 0.261-1.763 0.784-0.419 0.525-0.629 1.206-0.629 2.044v0c0 0.838 0.21 1.521 0.629 2.05 0.419 0.528 1.007 0.793 1.763 0.793zM331.897 191.398h1.285v11.561h-1.285v-0.683c-0.72 0.61-1.449 0.916-2.186 0.915v0c-1.02 0-1.836-0.342-2.446-1.025-0.61-0.683-0.916-1.676-0.916-2.979v0c0-1.303 0.305-2.296 0.916-2.979 0.61-0.683 1.426-1.025 2.446-1.025v0c0.729 0 1.458 0.31 2.186 0.93v0zM329.875 202.002c0.656 0 1.33-0.282 2.022-0.847v0-3.922c-0.674-0.565-1.348-0.847-2.022-0.847v0c-0.72 0-1.264 0.237-1.632 0.71-0.37 0.474-0.555 1.171-0.555 2.091v0c0 0.92 0.185 1.619 0.555 2.097 0.368 0.479 0.912 0.719 1.632 0.718zM336.516 199.283c0.018 0.838 0.228 1.508 0.629 2.009 0.401 0.501 1.039 0.752 1.913 0.751v0c0.665 0 1.394-0.187 2.187-0.56v0l0.396 1.066c-0.829 0.428-1.726 0.642-2.692 0.642v0c-0.802 0-1.485-0.169-2.05-0.505-0.565-0.337-0.993-0.806-1.284-1.408-0.292-0.601-0.437-1.303-0.438-2.104v0c0-0.847 0.153-1.57 0.459-2.168 0.304-0.596 0.716-1.049 1.236-1.358 0.519-0.31 1.102-0.465 1.749-0.465v0c0.993 0 1.772 0.31 2.337 0.93 0.565 0.62 0.847 1.508 0.847 2.664v0 0.506zM338.621 196.331c-1.13 0-1.804 0.624-2.023 1.872v0h3.854c-0.046-0.638-0.219-1.11-0.519-1.415-0.301-0.304-0.738-0.456-1.312-0.457z" fill="#ffffff" fill-rule="nonzero" stroke="none" stroke-width="1" stroke-linecap="butt" stroke-linejoin="miter" stroke-miterlimit="10" stroke-dasharray="" stroke-dashoffset="0" font-family="none" font-weight="none" font-size="none" text-anchor="none" style="mix-blend-mode: normal" data-fill-palette-color="secondary"></path></g></g><g transform="matrix(1,0,0,1,29.33176499999999,52.25172378850105)"><svg viewBox="0 0 316.416 53.060862422997936" height="53.060862422997936" width="316.416"><g><svg viewBox="0 0 316.416 53.060862422997936" height="53.060862422997936" width="316.416"><g><svg viewBox="0 0 316.416 53.060862422997936" height="53.060862422997936" width="316.416"><g><svg viewBox="0 0 316.416 53.060862422997936" height="53.060862422997936" width="316.416"><g id="textblocktransform"><svg viewBox="0 0 316.416 53.060862422997936" height="53.060862422997936" width="316.416" id="textblock"><g><svg viewBox="0 0 316.416 53.060862422997936" height="53.060862422997936" width="316.416"><g transform="matrix(1,0,0,1,0,0)"><svg width="316.416" viewBox="2.05 -36.15 219.13 36.75" height="53.060862422997936" data-palette-color="#010c80"><path d="M13.6 0.6Q8.5 0.6 5.28-1.9 2.05-4.4 2.05-9.7L2.05-9.7 2.1-10.7 6.65-10.7 6.6-9.65Q6.6-6.6 8.47-5.03 10.35-3.45 13.4-3.45L13.4-3.45Q16.85-3.45 18.73-4.93 20.6-6.4 20.6-9.15L20.6-9.15Q20.6-11 19.58-12.18 18.55-13.35 17.03-14.05 15.5-14.75 12.85-15.6L12.85-15.6Q9.6-16.7 7.6-17.7 5.6-18.7 4.17-20.63 2.75-22.55 2.75-25.7L2.75-25.7Q2.75-30.2 5.8-32.55 8.85-34.9 13.65-34.9L13.65-34.9Q18.45-34.9 21.43-32.52 24.4-30.15 24.4-25.25L24.4-25.25 24.4-24.65 19.85-24.65 19.85-25.4Q19.85-27.95 18.13-29.4 16.4-30.85 13.75-30.85L13.75-30.85Q10.9-30.85 9.15-29.63 7.4-28.4 7.4-26.05L7.4-26.05Q7.4-24.3 8.4-23.18 9.4-22.05 10.9-21.38 12.4-20.7 15-19.85L15-19.85Q18.3-18.75 20.33-17.78 22.35-16.8 23.78-14.88 25.2-12.95 25.2-9.9L25.2-9.9Q25.2-4.4 22.08-1.9 18.95 0.6 13.6 0.6L13.6 0.6ZM38.75 0.6Q34.1 0.6 31.72-2.78 29.35-6.15 29.35-13.15L29.35-13.15Q29.35-20.15 31.72-23.53 34.1-26.9 38.75-26.9L38.75-26.9Q43.4-26.9 45.77-23.53 48.15-20.15 48.15-13.15L48.15-13.15Q48.15-6.15 45.77-2.78 43.4 0.6 38.75 0.6L38.75 0.6ZM38.75-3.05Q43.85-3.05 43.85-12.2L43.85-12.2 43.85-14.1Q43.85-23.25 38.75-23.25L38.75-23.25Q33.65-23.25 33.65-14.1L33.65-14.1 33.65-12.2Q33.65-3.05 38.75-3.05L38.75-3.05ZM60.95 0.6Q56.3 0.6 54.12-2.73 51.95-6.05 51.95-13.15L51.95-13.15Q51.95-20.25 54.15-23.58 56.35-26.9 60.95-26.9L60.95-26.9Q65.15-26.9 67.07-24.3 69-21.7 69-16.55L69-16.55 64.75-16.55Q64.75-20.1 63.92-21.68 63.1-23.25 60.95-23.25L60.95-23.25Q58.55-23.25 57.4-20.98 56.25-18.7 56.25-14.1L56.25-14.1 56.25-12.2Q56.25-7.6 57.37-5.33 58.5-3.05 60.95-3.05L60.95-3.05Q63.1-3.05 64.02-4.7 64.95-6.35 64.95-9.75L64.95-9.75 69-9.75Q69-5.25 67.02-2.33 65.05 0.6 60.95 0.6L60.95 0.6ZM74.29 0L74.29-26.3 78.39-26.3 78.39 0 74.29 0ZM74.19-31.4L74.19-36.15 78.44-36.15 78.44-31.4 74.19-31.4ZM90.64 0.6Q87.94 0.6 85.84-1 83.74-2.6 83.74-6.8L83.74-6.8Q83.74-11.85 87.17-13.73 90.59-15.6 97.04-15.6L97.04-15.6 97.04-19Q97.04-21.05 96.14-22.15 95.24-23.25 92.89-23.25L92.89-23.25Q90.74-23.25 89.79-22.05 88.84-20.85 88.84-19.1L88.84-19.1 88.84-18.5 84.79-18.5Q84.74-18.8 84.74-19.6L84.74-19.6Q84.74-23.1 87.04-25 89.34-26.9 93.19-26.9L93.19-26.9Q97.14-26.9 99.14-25 101.14-23.1 101.14-19.55L101.14-19.55 101.14-4.8Q101.14-3.95 101.54-3.5 101.94-3.05 102.54-3.05L102.54-3.05 104.14-3.05 104.14-0.2Q103.04 0.4 101.44 0.4L101.44 0.4Q99.84 0.4 98.77-0.48 97.69-1.35 97.29-2.85L97.29-2.85 97.04-2.85Q96.04-1.2 94.37-0.3 92.69 0.6 90.64 0.6L90.64 0.6ZM91.59-3.05Q92.94-3.05 94.19-3.8 95.44-4.55 96.24-6.03 97.04-7.5 97.04-9.55L97.04-9.55 97.04-11.95Q92.54-11.95 90.29-10.93 88.04-9.9 88.04-7.05L88.04-7.05Q88.04-4.9 88.92-3.98 89.79-3.05 91.59-3.05L91.59-3.05ZM107.34 0L107.34-36.15 111.44-36.15 111.44 0 107.34 0ZM140.93 0.6Q127.43 0.6 127.43-17.15L127.43-17.15Q127.43-34.9 140.93-34.9L140.93-34.9Q146.38-34.9 149.63-31.58 152.88-28.25 152.88-21.9L152.88-21.9 148.38-21.9Q148.38-26.3 146.38-28.58 144.38-30.85 140.93-30.85L140.93-30.85Q136.43-30.85 134.23-27.75 132.03-24.65 132.03-18.4L132.03-18.4 132.03-15.9Q132.03-9.65 134.23-6.55 136.43-3.45 140.93-3.45L140.93-3.45Q144.48-3.45 146.51-5.7 148.53-7.95 148.53-12.3L148.53-12.3 152.88-12.3Q152.88-5.9 149.66-2.65 146.43 0.6 140.93 0.6L140.93 0.6ZM166.33 0.6Q161.68 0.6 159.31-2.78 156.93-6.15 156.93-13.15L156.93-13.15Q156.93-20.15 159.31-23.53 161.68-26.9 166.33-26.9L166.33-26.9Q170.98-26.9 173.36-23.53 175.73-20.15 175.73-13.15L175.73-13.15Q175.73-6.15 173.36-2.78 170.98 0.6 166.33 0.6L166.33 0.6ZM166.33-3.05Q171.43-3.05 171.43-12.2L171.43-12.2 171.43-14.1Q171.43-23.25 166.33-23.25L166.33-23.25Q161.23-23.25 161.23-14.1L161.23-14.1 161.23-12.2Q161.23-3.05 166.33-3.05L166.33-3.05ZM187.88 0.6Q183.98 0.6 181.85-2.8 179.73-6.2 179.73-13.2L179.73-13.2Q179.73-20 181.9-23.45 184.08-26.9 187.58-26.9L187.58-26.9Q189.53-26.9 191.03-26.08 192.53-25.25 193.18-23.8L193.18-23.8 193.43-23.8 193.43-36.15 197.53-36.15 197.53 0 194.43 0 193.88-3.05 193.63-3.05Q192.68-1.25 191.18-0.33 189.68 0.6 187.88 0.6L187.88 0.6ZM188.73-3.05Q193.43-3.05 193.43-12.2L193.43-12.2 193.43-13.9Q193.43-23.25 188.73-23.25L188.73-23.25Q186.33-23.25 185.18-21.1 184.03-18.95 184.03-14.1L184.03-14.1 184.03-12.2Q184.03-7.35 185.18-5.2 186.33-3.05 188.73-3.05L188.73-3.05ZM212.58 0.6Q207.58 0.6 205.1-2.68 202.63-5.95 202.63-13.15L202.63-13.15Q202.63-20.2 205.08-23.55 207.53-26.9 212.53-26.9L212.53-26.9Q216.93-26.9 219.05-23.98 221.18-21.05 221.18-14.55L221.18-14.55 221.18-11.95 206.93-11.95Q206.98-7.35 208.35-5.2 209.73-3.05 212.68-3.05L212.68-3.05Q214.68-3.05 215.9-4.65 217.13-6.25 217.13-8.95L217.13-8.95 221.18-8.95Q221.18-4.55 218.8-1.98 216.43 0.6 212.58 0.6L212.58 0.6ZM206.98-15.6L216.88-15.6Q216.88-19.35 215.78-21.3 214.68-23.25 212.53-23.25L212.53-23.25Q209.88-23.25 208.55-21.38 207.23-19.5 206.98-15.6L206.98-15.6Z" opacity="1" transform="matrix(1,0,0,1,0,0)" fill="#ffffff" class="wordmark-text-0" data-fill-palette-color="primary" id="text-0"></path></svg></g></svg></g></svg></g></svg></g></svg></g></svg></g></svg></g></svg></g><defs></defs></svg><rect width="375.07953" height="157.56431000000003" fill="none" stroke="none" visibility="hidden"></rect></g></svg></g></svg>